<svg data-v-423bf9ae="" xmlns="http://www.w3.org/2000/svg" viewBox="0 0 363 91" class="iconLeft"><!----><!----><!----><g data-v-423bf9ae="" id="503d1914-3b29-421f-af67-a97e1ccd179a" fill="#000000" transform="matrix(3.494467078240729,0,0,3.494467078240729,83.96343306380365,-2.996506263035265)"><path d="M2.55 5.15L2.55 16.91L2.55 16.91Q2.55 17.08 2.65 17.23L2.65 17.23L2.65 17.23Q2.74 17.39 2.98 17.39L2.98 17.39L2.98 17.39Q3.18 17.39 3.40 17.21L3.40 17.21L3.40 17.21Q3.61 17.04 3.72 16.84L3.72 16.84L3.96 17.05L3.96 17.05Q3.72 17.51 3.30 17.84L3.30 17.84L3.30 17.84Q2.88 18.16 2.46 18.16L2.46 18.16L2.46 18.16Q1.29 18.16 1.29 16.74L1.29 16.74L1.29 5.68L2.55 5.15ZM10.96 10.89L10.96 16.87L10.96 16.87Q10.96 17.08 11.07 17.21L11.07 17.21L11.07 17.21Q11.17 17.35 11.37 17.35L11.37 17.35L11.37 17.35Q11.66 17.35 12.08 16.80L12.08 16.80L12.29 17.01L12.29 17.01Q12.00 17.64 11.59 17.90L11.59 17.90L11.59 17.90Q11.17 18.16 11.17 18.16L11.17 18.16L11.17 18.16Q11.17 18.16 10.81 18.16L10.81 18.16L10.81 18.16Q10.36 18.16 10.13 17.91L10.13 17.91L10.13 17.91Q9.90 17.65 9.80 17.00L9.80 17.00L9.80 17.00Q9.70 16.35 9.70 15.06L9.70 15.06L9.70 15.06Q9.70 14.29 9.72 13.83L9.72 13.83L9.60 13.55L9.56 13.55L9.56 13.55Q9.20 15.27 8.55 16.77L8.55 16.77L8.55 16.77Q7.90 18.26 6.69 18.26L6.69 18.26L6.69 18.26Q6.24 18.26 6.04 18.03L6.04 18.03L6.04 18.03Q5.84 17.81 5.80 17.42L5.80 17.42L5.80 17.42Q5.75 17.04 5.75 16.24L5.75 16.24L5.75 12.29L5.75 12.29Q5.75 12.05 5.65 11.91L5.65 11.91L5.65 11.91Q5.54 11.77 5.36 11.77L5.36 11.77L5.36 11.77Q5.03 11.77 4.61 12.33L4.61 12.33L4.44 12.11L4.44 12.11Q4.66 11.58 5.00 11.32L5.00 11.32L5.00 11.32Q5.35 11.06 5.65 11.00L5.65 11.00L5.65 11.00Q5.95 10.93 5.95 10.98L5.95 10.98L5.95 10.98Q5.94 10.98 5.91 10.98L5.91 10.98L5.91 10.98Q5.88 10.99 5.82 10.99L5.82 10.99L5.82 10.99Q7.03 10.99 7.03 12.38L7.03 12.38L7.03 16.41L7.03 16.41Q7.03 16.72 7.10 16.85L7.10 16.85L7.10 16.85Q7.17 16.98 7.27 16.98L7.27 16.98L7.27 16.98Q7.87 16.98 8.39 15.81L8.39 15.81L8.39 15.81Q8.90 14.63 9.23 13.22L9.23 13.22L9.23 13.22Q9.56 11.80 9.56 11.52L9.56 11.52L10.96 10.89ZM20.78 10.96L20.78 10.96Q21.20 10.96 21.43 11.24L21.43 11.24L21.43 11.24Q21.66 11.51 21.66 12.15L21.66 12.15L21.66 16.91L21.66 16.91Q21.66 17.12 21.76 17.26L21.76 17.26L21.76 17.26Q21.85 17.39 22.02 17.39L22.02 17.39L22.02 17.39Q22.19 17.39 22.39 17.25L22.39 17.25L22.39 17.25Q22.58 17.11 22.76 16.84L22.76 16.84L22.99 17.05L22.99 17.05Q22.69 17.68 22.29 17.93L22.29 17.93L22.29 17.93Q21.88 18.17 22.13 18.17L22.13 18.17L22.13 18.17Q22.39 18.16 21.53 18.16L21.53 18.16L21.53 18.16Q20.37 18.16 20.37 16.74L20.37 16.74L20.37 12.88L20.37 12.88Q20.37 12.74 20.30 12.64L20.30 12.64L20.30 12.64Q20.23 12.54 20.12 12.54L20.12 12.54L20.12 12.54Q19.81 12.54 19.45 13.22L19.45 13.22L19.45 13.22Q19.08 13.89 18.83 15.11L18.83 15.11L18.83 15.11Q18.58 16.34 18.58 17.92L18.58 17.92L17.30 18.28L17.30 12.88L17.30 12.88Q17.30 12.74 17.23 12.64L17.23 12.64L17.23 12.64Q17.16 12.54 17.07 12.54L17.07 12.54L17.07 12.54Q16.79 12.54 16.41 13.22L16.41 13.22L16.41 13.22Q16.04 13.90 15.77 15.13L15.77 15.13L15.77 15.13Q15.50 16.35 15.50 17.92L15.50 17.92L14.29 18.28L14.29 12.29L14.29 12.29Q14.29 12.05 14.17 11.91L14.17 11.91L14.17 11.91Q14.06 11.77 13.87 11.77L13.87 11.77L13.87 11.77Q13.52 11.77 13.16 12.38L13.16 12.38L12.94 12.15L12.94 12.15Q13.23 11.52 13.64 11.25L13.64 11.25L13.64 11.25Q14.04 10.98 14.13 10.97L14.13 10.97L14.13 10.97Q14.22 10.96 14.41 10.96L14.41 10.96L14.41 10.96Q15.08 10.96 15.32 11.25L15.32 11.25L15.32 11.25Q15.55 11.54 15.55 12.01L15.55 12.01L15.55 14.35L15.60 14.35L15.60 14.35Q15.95 12.82 16.54 11.89L16.54 11.89L16.54 11.89Q17.14 10.96 17.72 10.96L17.72 10.96L17.72 10.96Q18.16 10.96 18.38 11.23L18.38 11.23L18.38 11.23Q18.59 11.49 18.59 12.15L18.59 12.15L18.59 14.35L18.68 14.35L18.68 14.35Q19.03 12.82 19.61 11.89L19.61 11.89L19.61 11.89Q20.19 10.96 20.78 10.96L20.78 10.96ZM31.68 10.96L31.68 10.96Q32.10 10.96 32.33 11.24L32.33 11.24L32.33 11.24Q32.56 11.51 32.56 12.15L32.56 12.15L32.56 16.91L32.56 16.91Q32.56 17.12 32.66 17.26L32.66 17.26L32.66 17.26Q32.76 17.39 32.93 17.39L32.93 17.39L32.93 17.39Q33.10 17.39 33.29 17.25L33.29 17.25L33.29 17.25Q33.49 17.11 33.67 16.84L33.67 16.84L33.89 17.05L33.89 17.05Q33.60 17.68 33.19 17.93L33.19 17.93L33.19 17.93Q32.79 18.17 33.04 18.17L33.04 18.17L33.04 18.17Q33.29 18.16 32.44 18.16L32.44 18.16L32.44 18.16Q31.28 18.16 31.28 16.74L31.28 16.74L31.28 12.88L31.28 12.88Q31.28 12.74 31.21 12.64L31.21 12.64L31.21 12.64Q31.14 12.54 31.02 12.54L31.02 12.54L31.02 12.54Q30.72 12.54 30.35 13.22L30.35 13.22L30.35 13.22Q29.99 13.89 29.74 15.11L29.74 15.11L29.74 15.11Q29.48 16.34 29.48 17.92L29.48 17.92L28.21 18.28L28.21 12.88L28.21 12.88Q28.21 12.74 28.14 12.64L28.14 12.64L28.14 12.64Q28.07 12.54 27.97 12.54L27.97 12.54L27.97 12.54Q27.69 12.54 27.32 13.22L27.32 13.22L27.32 13.22Q26.95 13.90 26.68 15.13L26.68 15.13L26.68 15.13Q26.40 16.35 26.40 17.92L26.40 17.92L25.20 18.28L25.20 12.29L25.20 12.29Q25.20 12.05 25.08 11.91L25.08 11.91L25.08 11.91Q24.96 11.77 24.78 11.77L24.78 11.77L24.78 11.77Q24.43 11.77 24.07 12.38L24.07 12.38L23.84 12.15L23.84 12.15Q24.14 11.52 24.54 11.25L24.54 11.25L24.54 11.25Q24.95 10.98 25.04 10.97L25.04 10.97L25.04 10.97Q25.13 10.96 25.31 10.96L25.31 10.96L25.31 10.96Q25.98 10.96 26.22 11.25L26.22 11.25L26.22 11.25Q26.46 11.54 26.46 12.01L26.46 12.01L26.46 14.35L26.50 14.35L26.50 14.35Q26.85 12.82 27.45 11.89L27.45 11.89L27.45 11.89Q28.04 10.96 28.63 10.96L28.63 10.96L28.63 10.96Q29.06 10.96 29.28 11.23L29.28 11.23L29.28 11.23Q29.50 11.49 29.50 12.15L29.50 12.15L29.50 14.35L29.58 14.35L29.58 14.35Q29.93 12.82 30.51 11.89L30.51 11.89L30.51 11.89Q31.09 10.96 31.68 10.96L31.68 10.96ZM41.08 10.89L41.08 17.33L41.08 17.33Q41.08 18.65 40.55 19.80L40.55 19.80L40.55 19.80Q40.03 20.94 39.16 21.63L39.16 21.63L39.16 21.63Q38.29 22.32 37.31 22.32L37.31 22.32L37.31 22.32Q36.93 22.32 36.60 22.20L36.60 22.20L36.60 22.20Q36.26 22.09 35.90 21.83L35.90 21.83L36.88 20.58L36.88 20.58Q37.17 20.87 37.57 21.06L37.57 21.06L37.57 21.06Q37.97 21.24 38.32 21.24L38.32 21.24L38.32 21.24Q38.75 21.24 39.10 20.72L39.10 20.72L39.10 20.72Q39.45 20.20 39.66 19.29L39.66 19.29L39.66 19.29Q39.86 18.38 39.86 17.23L39.86 17.23L39.86 17.23Q39.86 14.63 39.87 13.89L39.87 13.89L39.87 13.05L39.79 13.05L39.79 13.05Q38.64 18.26 36.81 18.26L36.81 18.26L36.81 18.26Q36.40 18.26 36.20 18.10L36.20 18.10L36.20 18.10Q36.01 17.93 35.94 17.51L35.94 17.51L35.94 17.51Q35.87 17.09 35.87 16.24L35.87 16.24L35.87 12.29L35.87 12.29Q35.87 12.07 35.76 11.91L35.76 11.91L35.76 11.91Q35.64 11.76 35.48 11.76L35.48 11.76L35.48 11.76Q35.13 11.76 34.73 12.33L34.73 12.33L34.51 12.11L34.51 12.11Q34.82 11.45 35.12 11.21L35.12 11.21L35.12 11.21Q35.42 10.98 35.99 10.98L35.99 10.98L35.99 10.98Q36.55 10.98 36.83 11.33L36.83 11.33L36.83 11.33Q37.11 11.69 37.11 12.38L37.11 12.38L37.11 16.20L37.11 16.20Q37.11 16.72 37.41 16.72L37.41 16.72L37.41 16.72Q37.76 16.72 38.30 15.76L38.30 15.76L38.30 15.76Q38.85 14.81 39.27 13.56L39.27 13.56L39.27 13.56Q39.69 12.31 39.69 11.52L39.69 11.52L41.08 10.89ZM42.98 8.72L43.46 11.80L44.06 11.55L44.49 8.12L42.98 8.72ZM47.85 10.51L47.85 10.51Q48.33 10.51 48.54 10.68L48.54 10.68L48.54 10.68Q48.76 10.85 48.76 11.20L48.76 11.20L48.76 11.20Q48.76 11.58 48.61 11.87L48.61 11.87L48.61 11.87Q48.47 12.17 48.30 12.38L48.30 12.38L48.30 12.38Q48.13 12.59 48.08 12.67L48.08 12.67L48.08 12.67Q48.24 12.95 48.71 13.33L48.71 13.33L48.71 13.33Q49.08 13.65 49.31 13.90L49.31 13.90L49.31 13.90Q49.53 14.15 49.69 14.58L49.69 14.58L49.69 14.58Q49.85 15.01 49.85 15.62L49.85 15.62L49.85 15.62Q49.85 16.35 49.52 16.95L49.52 16.95L49.52 16.95Q49.20 17.56 48.61 17.91L48.61 17.91L48.61 17.91Q48.03 18.26 47.31 18.26L47.31 18.26L47.31 18.26Q46.86 18.26 46.33 18.07L46.33 18.07L46.33 18.07Q45.79 17.88 45.54 17.53L45.54 17.53L46.48 16.28L46.48 16.28Q46.82 16.72 47.19 17.02L47.19 17.02L47.19 17.02Q47.56 17.33 47.99 17.33L47.99 17.33L47.99 17.33Q48.59 17.33 49.02 16.93L49.02 16.93L49.02 16.93Q49.45 16.53 49.45 15.97L49.45 15.97L49.45 15.97Q49.45 15.53 49.08 15.09L49.08 15.09L49.08 15.09Q48.71 14.64 48.03 14.04L48.03 14.04L48.03 14.04Q47.95 13.97 47.71 13.76L47.71 13.76L47.71 13.76Q47.47 13.54 47.36 13.40L47.36 13.40L46.38 14.84L45.93 14.55L47.05 12.99L47.05 12.99Q46.86 12.45 46.86 11.91L46.86 11.91L46.86 11.91Q46.86 11.31 47.12 10.91L47.12 10.91L47.12 10.91Q47.39 10.51 47.85 10.51L47.85 10.51ZM47.85 11.06L47.85 11.06Q47.67 11.06 47.62 11.16L47.62 11.16L47.62 11.16Q47.57 11.26 47.57 11.45L47.57 11.45L47.57 11.45Q47.57 11.70 47.64 11.89L47.64 11.89L47.64 11.89Q47.71 12.07 47.74 12.14L47.74 12.14L47.74 12.14Q47.89 12.04 48.03 11.78L48.03 11.78L48.03 11.78Q48.16 11.52 48.16 11.34L48.16 11.34L48.16 11.34Q48.16 11.21 48.08 11.14L48.08 11.14L48.08 11.14Q48.01 11.06 47.85 11.06L47.85 11.06ZM60.48 14.39L60.48 14.39Q60.48 15.25 59.93 16.16L59.93 16.16L59.93 16.16Q59.39 17.07 58.58 17.66L58.58 17.66L58.58 17.66Q57.78 18.26 57.06 18.26L57.06 18.26L57.06 18.26Q55.92 18.26 55.26 17.48L55.26 17.48L55.26 17.48Q54.61 16.70 54.61 15.50L54.61 15.50L54.61 5.68L55.89 5.15L55.89 15.81L55.89 15.81Q55.89 16.48 56.29 16.98L56.29 16.98L56.29 16.98Q56.70 17.49 57.44 17.49L57.44 17.49L57.44 17.49Q58.06 17.49 58.51 17.14L58.51 17.14L58.51 17.14Q58.97 16.79 59.20 16.28L59.20 16.28L59.20 16.28Q59.43 15.76 59.43 15.30L59.43 15.30L59.43 15.30Q59.43 14.60 59.07 13.86L59.07 13.86L59.07 13.86Q58.70 13.12 58.12 12.64L58.12 12.64L58.12 12.64Q57.54 12.17 56.91 12.17L56.91 12.17L58.16 11.13L58.16 11.13Q58.76 11.33 59.30 11.88L59.30 11.88L59.30 11.88Q59.84 12.43 60.16 13.13L60.16 13.13L60.16 13.13Q60.48 13.82 60.48 14.39L60.48 14.39ZM63.67 5.15L63.67 16.91L63.67 16.91Q63.67 17.08 63.77 17.23L63.77 17.23L63.77 17.23Q63.87 17.39 64.11 17.39L64.11 17.39L64.11 17.39Q64.30 17.39 64.52 17.21L64.52 17.21L64.52 17.21Q64.74 17.04 64.85 16.84L64.85 16.84L65.09 17.05L65.09 17.05Q64.85 17.51 64.43 17.84L64.43 17.84L64.43 17.84Q64.01 18.16 63.59 18.16L63.59 18.16L63.59 18.16Q62.41 18.16 62.41 16.74L62.41 16.74L62.41 5.68L63.67 5.15ZM69.20 10.96L69.45 11.26L69.45 11.26Q68.40 11.93 67.80 12.75L67.80 12.75L67.80 12.75Q67.20 13.58 67.20 14.70L67.20 14.70L67.20 14.70Q67.20 15.33 67.47 15.97L67.47 15.97L67.47 15.97Q67.73 16.60 68.26 17.02L68.26 17.02L68.26 17.02Q68.80 17.44 69.54 17.44L69.54 17.44L69.54 17.44Q70.14 17.44 70.61 17.16L70.61 17.16L70.61 17.16Q71.08 16.88 71.34 16.41L71.34 16.41L71.34 16.41Q71.60 15.93 71.60 15.36L71.60 15.36L71.60 15.36Q71.60 14.70 71.20 14.01L71.20 14.01L71.20 14.01Q70.80 13.33 70.15 12.85L70.15 12.85L70.15 12.85Q69.51 12.38 68.84 12.32L68.84 12.32L68.84 12.32Q69.12 12.04 69.51 11.73L69.51 11.73L69.51 11.73Q69.90 11.42 70.31 11.13L70.31 11.13L70.31 11.13Q71.27 11.45 71.83 12.36L71.83 12.36L71.83 12.36Q72.39 13.26 72.39 14.36L72.39 14.36L72.39 14.36Q72.39 15.34 71.99 16.25L71.99 16.25L71.99 16.25Q71.60 17.15 70.83 17.72L70.83 17.72L70.83 17.72Q70.06 18.28 69.01 18.28L69.01 18.28L69.01 18.28Q68.17 18.28 67.46 17.87L67.46 17.87L67.46 17.87Q66.75 17.46 66.35 16.74L66.35 16.74L66.35 16.74Q65.94 16.03 65.94 15.16L65.94 15.16L65.94 15.16Q65.94 13.64 66.84 12.52L66.84 12.52L66.84 12.52Q67.75 11.40 69.20 10.96L69.20 10.96ZM77.35 10.91L77.35 10.91Q78.02 10.91 78.64 11.28L78.64 11.28L78.64 11.28Q79.25 11.65 79.58 12.28L79.58 12.28L78.57 12.82L78.57 12.82Q78.36 12.33 77.97 12.05L77.97 12.05L77.97 12.05Q77.57 11.77 77.10 11.77L77.10 11.77L77.10 11.77Q76.40 11.77 75.87 12.25L75.87 12.25L75.87 12.25Q75.35 12.73 75.06 13.43L75.06 13.43L75.06 13.43Q74.77 14.13 74.77 14.76L74.77 14.76L74.77 14.76Q74.77 15.74 75.19 16.49L75.19 16.49L75.19 16.49Q75.60 17.25 76.51 17.25L76.51 17.25L76.51 17.25Q77.55 17.25 77.94 16.32L77.94 16.32L77.94 16.32Q78.33 15.39 78.33 14.31L78.33 14.31L78.33 13.68L79.59 13.16L79.59 17.44L79.59 17.44Q79.59 18.49 79.10 19.61L79.10 19.61L79.10 19.61Q78.61 20.73 77.75 21.48L77.75 21.48L77.75 21.48Q76.89 22.22 75.81 22.22L75.81 22.22L75.81 22.22Q75.04 22.22 74.59 21.69L74.59 21.69L75.78 20.68L75.78 20.68Q75.88 20.93 76.11 21.08L76.11 21.08L76.11 21.08Q76.34 21.24 76.69 21.24L76.69 21.24L76.69 21.24Q77.74 21.24 78.06 20.46L78.06 20.46L78.06 20.46Q78.37 19.68 78.37 18.51L78.37 18.51L78.33 17.36L78.33 17.36Q78.33 16.84 78.43 16.52L78.43 16.52L78.33 16.52L78.33 16.52Q77.81 17.33 77.33 17.79L77.33 17.79L77.33 17.79Q76.85 18.26 76.17 18.26L76.17 18.26L76.17 18.26Q74.97 18.26 74.33 17.46L74.33 17.46L74.33 17.46Q73.68 16.67 73.68 15.46L73.68 15.46L73.68 15.46Q73.68 14.27 74.16 13.22L74.16 13.22L74.16 13.22Q74.65 12.18 75.49 11.54L75.49 11.54L75.49 11.54Q76.34 10.91 77.35 10.91L77.35 10.91Z"></path></g><!----><g data-v-423bf9ae="" id="20b695f6-5f1d-45e5-b2ca-217afe93d988" transform="matrix(1.1256162798941491,0,0,1.1256162798941491,-21.74454510094243,-11.30688653430746)" stroke="none" fill="#000000"><path d="M63.738 11.716c-1.346-.751-3.007-.715-4.748-.038a4.45 4.45 0 0 1 1.969.545c3.614 2.016 3.597 8.938-.041 15.459-.668 1.198-1.337 2.395-2.004 3.593-1.269 2.274-3.193 4.725-4.067 7.161-.211.587-.81 2.75-.689 3.273.458 1.991 4.407-5.333 4.681-5.824 1.62-2.903 3.24-5.807 4.858-8.71 3.637-6.522 3.655-13.444.041-15.459zM76.843 90.36c-.569 0-1.07-.114-1.513-.341-1.473-.758-1.814-2.49-2.144-4.168-.296-1.511-.576-2.938-1.579-3.457-1.5-.775-4.547-.281-6.369.018l-.198.032c-1.651.269-3.417.817-5.287 1.399-2.51.779-5.103 1.586-7.479 1.683l-.966.039.076-.962c.043-.545.293-1.114.559-1.72.545-1.239.72-1.847.321-2.161-.835-.66-3.362-.4-7.505.772l-.409.116c-.361.1-.882.262-1.517.46-5.588 1.74-11.76 3.45-14.293 1.695-.686-.477-1.075-1.183-1.125-2.045a.857.857 0 0 1 .807-.904c.477-.003.877.333.905.807.019.338.135.558.39.733 2.059 1.427 9.867-1.007 12.807-1.923.658-.205 1.197-.373 1.57-.477l.398-.111c3.681-1.042 7.323-1.816 9.035-.47 1.507 1.19.712 3 .187 4.197-.019.042-.035.082-.054.122 1.835-.261 3.836-.884 5.784-1.49 1.845-.572 3.752-1.166 5.522-1.453l.197-.032c2.164-.353 5.434-.884 7.432.152 1.737.898 2.13 2.892 2.475 4.65.262 1.333.51 2.594 1.245 2.973.645.331 1.842.108 3.466-.633a.857.857 0 1 1 .712 1.559c-1.38.63-2.511.94-3.45.94zM33.647 60.737c-2.915-.959-5.222-2.576-6.443-4.288-6.1 13.144-8.838 23.231-6.269 24.664 2.661 1.484 10.229-6.766 18.546-19.611-1.721.156-3.755-.082-5.834-.765z"></path><path d="M60.113 10.875c-3.425-1.91-9.332 2.159-13.195 9.086L31.771 47.119l.053.029a203.09 203.09 0 0 0-4.244 8.508c1.598 1.378 3.888 2.653 6.576 3.537 2.167.713 4.274 1.065 6.114 1.093a209.739 209.739 0 0 0 3.844-6.282l.052.029 15.149-27.158c3.864-6.927 4.22-14.09.798-16z"></path></g><!----></svg>